
<svg version="1.0" xmlns="http://www.w3.org/2000/svg"
 width="1460.000000pt" height="400.000000pt" viewBox="0 0 760.000000 180.000000"
 preserveAspectRatio="xMidYMid meet">
<g transform="translate(0.000000,280.000000) scale(0.100000,-0.100000)"
fill="#2a2b36" stroke="none">
<path d="M6826 2340 c-21 -27 -61 -69 -88 -92 -50 -41 -51 -42 -78 -26 -27 16
-29 15 -61 -18 -18 -19 -40 -34 -50 -34 -11 0 -23 -19 -38 -60 -19 -50 -31
-67 -75 -100 -38 -28 -59 -52 -72 -84 -18 -42 -34 -60 -34 -36 0 22 -32 8 -48
-20 -11 -19 -25 -30 -39 -30 -12 0 -35 -11 -51 -25 -17 -14 -39 -25 -51 -25
-11 0 -37 -15 -57 -32 -31 -28 -45 -33 -88 -33 -104 -2 -131 -13 -164 -66 -24
-38 -39 -50 -73 -60 -30 -9 -50 -24 -68 -51 -21 -30 -31 -37 -49 -33 -18 5
-32 -3 -61 -36 -34 -37 -40 -40 -59 -28 -16 10 -23 10 -35 0 -13 -10 -19 -5
-36 33 -14 33 -32 53 -69 76 -40 24 -54 41 -76 90 -17 38 -33 60 -44 60 -9 0
-31 14 -48 31 -31 30 -33 31 -55 15 -35 -24 -63 -20 -87 14 -14 19 -32 30 -47
30 -16 0 -37 15 -66 50 -23 27 -47 50 -53 50 -6 -1 -26 -20 -45 -44 -25 -32
-43 -45 -68 -49 -31 -5 -42 0 -98 48 -35 30 -79 62 -97 71 -18 9 -42 25 -53
35 -11 10 -38 25 -60 35 -22 9 -58 29 -81 44 l-41 29 -42 -29 c-24 -15 -60
-30 -81 -34 -20 -3 -43 -13 -50 -21 -14 -17 -53 -20 -81 -4 -15 8 -27 6 -53
-10 -18 -12 -42 -21 -52 -21 -11 0 -30 -16 -44 -35 -17 -23 -39 -38 -69 -47
-25 -7 -55 -26 -71 -44 -19 -22 -32 -29 -41 -23 -21 13 -28 11 -57 -18 -38
-38 -67 -38 -145 -1 l-68 33 -62 -32 c-34 -18 -75 -35 -91 -39 -43 -10 -243
-111 -308 -155 -50 -34 -60 -38 -82 -28 -34 16 -55 2 -329 -218 -125 -101
-232 -183 -237 -183 -6 0 -10 -11 -10 -25 0 -32 -6 -31 -54 5 -49 37 -65 37
-102 0 -17 -17 -40 -30 -55 -30 -15 0 -38 -13 -58 -34 -35 -36 -69 -48 -94
-34 -9 5 -27 3 -44 -3 -15 -6 -39 -11 -53 -11 -20 0 -31 -11 -55 -51 -23 -39
-42 -58 -80 -78 -36 -18 -57 -37 -74 -69 -14 -24 -26 -39 -29 -32 -5 15 -35
15 -50 0 -9 -9 -16 -8 -29 4 -10 9 -38 26 -63 38 -25 13 -64 36 -87 53 l-42
30 -40 -32 c-22 -18 -55 -34 -72 -36 -18 -3 -43 -14 -55 -26 -22 -20 -27 -21
-68 -9 -41 11 -47 10 -74 -9 -17 -11 -38 -21 -49 -21 -10 -1 -30 -18 -45 -40
-19 -27 -39 -43 -68 -51 -23 -7 -53 -26 -67 -43 -19 -23 -33 -30 -53 -28 -20
2 -33 -4 -50 -25 -12 -15 -27 -28 -33 -28 -14 0 -437 -395 -437 -407 0 -4
1798 -8 3995 -8 l3995 0 0 645 c0 577 -2 646 -16 652 -8 3 -20 1 -27 -6 -17
-17 -22 -14 -66 32 -36 37 -43 41 -60 30 -17 -11 -21 -10 -26 6 -8 26 -45 58
-96 84 -24 12 -55 39 -70 61 -21 31 -36 42 -75 52 -27 8 -65 11 -85 8 -30 -4
-42 0 -78 30 -24 20 -54 36 -67 36 -14 0 -37 11 -52 25 -15 14 -37 25 -49 25
-15 0 -28 10 -38 30 -16 32 -33 38 -53 18 -9 -9 -13 -7 -18 8 -25 71 -36 85
-82 114 -43 26 -54 40 -75 93 -16 41 -31 63 -43 65 -11 2 -33 19 -49 39 l-30
35 -31 -18 -31 -18 -42 35 c-22 19 -62 60 -87 92 -37 47 -49 56 -60 46 -10 -8
-14 -8 -14 0 0 22 -17 10 -54 -39z"/>
</g>
</svg>
