<?xml version="1.0" standalone="no"?>
<!DOCTYPE svg PUBLIC "-//W3C//DTD SVG 20010904//EN"
 "http://www.w3.org/TR/2001/REC-SVG-20010904/DTD/svg10.dtd">
<svg version="1" xmlns="http://www.w3.org/2000/svg"
 width="155pt" height="125pt" viewBox="0 0 155 125"
 preserveAspectRatio="xMidYMid meet">
 
<g transform="translate(0,125) scale(0.1,-0.1)"
fill="#000000" stroke="none">
<path d="M 293 1110 c -79 -35 -106 -130 -63 -214 c 22 -45 13 -76 -23 -76 c -33 0 -101 -71 -117 -122 c -34 -113 -30 -343 9 -469 c 24 -77 71 -146 109 -160 c 43 -16 142 -13 192 7 c 56 22 149 83 264 174 c 48 38 93 70 98 70 c 6 0 26 -14 46 -31 c 19 -17 76 -50 126 -73 c 50 -24 109 -54 131 -68 c 22 -14 55 -29 72 -32 c 17 -4 41 -16 54 -27 c 29 -25 48 -24 89 6 c 19 14 40 25 47 25 c 18 0 93 38 116 58 c 20 17 23 78 5 85 c -7 2 -35 -4 -63 -13 c -30 -10 -60 -14 -75 -10 c -14 4 -37 5 -51 3 c -15 -3 -42 4 -65 16 c -21 12 -43 21 -48 21 c -4 0 -65 38 -135 84 c -69 45 -145 94 -168 107 c -24 13 -43 27 -43 31 c 0 3 18 9 41 13 c 23 4 48 15 57 26 c 26 31 124 219 119 232 c -2 6 -25 -29 -52 -78 c -68 -127 -89 -152 -131 -160 c -29 -5 -39 -3 -50 14 c -19 27 -70 37 -92 18 c -9 -8 -30 -17 -47 -20 c -89 -18 -125 -27 -179 -46 c -103 -38 -111 -29 -123 137 c -4 62 -11 99 -21 109 c -23 22 14 67 59 71 c 41 4 59 18 59 44 c 0 10 7 21 15 24 c 11 5 13 13 9 28 c -15 46 -5 104 16 91 c 16 -10 20 12 5 31 c -8 10 -15 26 -15 35 c 0 17 -39 39 -70 39 c -10 0 -22 5 -25 10 c -9 14 -34 11 -82 -10 z"/>
</g>
    <polyline points="39.4,93.5 37.2,84.9 59.3,78.1 60.5,83" fill="#181d238.1 60.5,83"/>
    <polyline points="29.5,56.5 12.8,46.2 8.6,54.1 7.5,59.7 6.8,72.1 6.8,83 7.9,95.8 9.8,102.9 12.8,110 25.5,102.5 33.8,98 40.2,94.6 37.2,84.5 30.8,82.3 29.3,73.2 28.2,64.2 30,55.6 33.8,52.2 30,46.2 21.8,42.1 12.4,46.9" fill="rgb(105, 6, 6)"/>
    <polyline points="40.2,111.2 19.5,119.1 48.1,114.6 75.9,94.3 116.4,115.3 122.4,99.5 102.5,89.4 80.8,75.5 79.6,75.9 60.8,80 55.2,83.8 43.6,89.8 39.1,93.9 12.8,108.9 12.8,111.9 15.4,115.7 27,120.9 40.2,117.9 44.7,114.9 43.2,110.8" fill="rgb(4, 10, 67)"/>
    <polyline points="40.6,13.1 31.5,20.7 22.5,35.3 21,24.4 22.5,18 25.5,13.5 31.2,11.6 35.7,11.3" fill="#f5f5dc"/>
    <polyline points="28.5,8.3 20.3,8.3 17.7,10.9 13.1,14.6 13.5,14.6 12,17.7 12,19.9 10.9,22.5 9.8,27.4 12.8,31.9 17.7,27 21.4,22.5 24.8,14.6 38.3,12.4" fill="#f5f5dc"/>
</svg>
