<?xml version="1.0" standalone="no"?>
<!DOCTYPE svg>
<svg version="1" xmlns="http://www.w3.org/2000/svg"
 width="160pt" height="200pt" viewBox="0 0 605 1024"
 preserveAspectRatio="xMidYMid meet">
 
<g transform="matrix(0.1,0,0,-0.1,0,1024)"
fill="#000000" stroke="none">
<path d="M 3718 10215 c -20 -13 -56 -32 -79 -41 c -24 -9 -62 -31 -85 -48 c -55 -42 -124 -123 -124 -146 c 0 -10 -5 -22 -10 -25 c -15 -9 -38 -67 -49 -123 c -5 -26 -19 -90 -31 -142 c -18 -74 -24 -141 -29 -304 l -6 -208 l -28 -22 c -33 -26 -34 -55 -12 -256 c 18 -158 32 -192 101 -238 l 49 -34 l 7 -81 c 4 -57 3 -85 -5 -93 c -24 -23 -195 -103 -340 -160 c -50 -20 -113 -47 -139 -60 c -26 -13 -53 -24 -59 -24 c -22 0 -176 -80 -194 -100 c -10 -11 -21 -20 -25 -20 c -7 0 -123 -77 -194 -127 c -80 -58 -97 -71 -148 -109 c -60 -46 -217 -180 -233 -199 c -21 -26 -328 -287 -387 -330 c -68 -50 -144 -100 -159 -107 c -10 -4 -48 -29 -85 -55 c -71 -51 -145 -98 -192 -122 c -15 -7 -36 -22 -47 -31 c -24 -22 -150 -85 -185 -93 c -14 -4 -48 -28 -75 -54 c -28 -26 -70 -61 -95 -77 c -25 -16 -84 -67 -133 -114 c -101 -100 -110 -120 -129 -298 c -11 -105 -10 -116 9 -176 c 12 -35 24 -97 28 -138 c 3 -41 17 -111 30 -155 c 61 -200 145 -515 145 -540 c 0 -18 36 -200 55 -280 c 4 -16 16 -46 27 -66 c 19 -35 19 -36 -1 -143 c -12 -59 -21 -130 -21 -159 c 0 -29 -11 -160 -25 -292 c -14 -137 -29 -369 -35 -540 c -6 -165 -15 -361 -20 -435 c -17 -247 -11 -344 37 -584 c 11 -57 13 -103 8 -171 l -7 -92 l 59 -23 c 32 -13 59 -24 60 -25 c 9 -5 -27 -276 -40 -300 c -8 -17 -56 -68 -106 -114 c -51 -46 -113 -113 -138 -150 c -26 -36 -51 -68 -55 -71 c -4 -3 -19 -23 -34 -45 c -42 -62 -81 -116 -114 -160 c -76 -103 -81 -139 -24 -184 c 24 -19 26 -23 12 -39 c -8 -9 -24 -28 -34 -41 c -10 -13 -30 -37 -44 -52 c -14 -16 -35 -41 -48 -56 c -21 -26 -38 -47 -87 -104 c -22 -26 -95 -117 -107 -134 c -5 -5 -24 -30 -43 -55 c -19 -25 -39 -49 -43 -55 c -39 -50 -42 -61 -42 -153 c 0 -85 2 -95 24 -117 c 13 -13 35 -26 48 -29 c 12 -2 64 -13 113 -23 c 50 -10 118 -17 152 -16 c 71 2 194 33 271 69 c 29 13 58 24 65 24 c 7 0 17 4 22 9 c 6 5 30 20 55 33 c 138 74 306 208 411 329 c 50 57 68 84 129 190 c 39 68 83 103 225 179 c 109 58 309 163 365 191 c 50 25 142 120 171 176 c 37 74 39 186 5 278 c -15 38 -30 72 -34 75 c -15 10 -139 196 -170 255 c -99 187 -102 346 -12 600 c 28 78 39 231 40 519 l 0 228 l 50 101 c 58 117 60 137 30 302 c -10 60 -18 110 -16 112 c 1 2 35 -36 75 -83 c 40 -46 84 -90 98 -97 c 23 -10 28 -8 54 23 c 16 18 32 51 36 72 c 5 22 12 39 16 39 c 10 0 150 -159 265 -301 c 47 -58 99 -119 116 -135 c 35 -35 153 -125 163 -125 c 4 0 16 -8 27 -19 c 72 -65 328 -211 371 -211 c 6 0 30 -9 53 -20 c 193 -93 540 -192 730 -208 l 62 -5 l 0 -184 l 0 -184 l -110 -110 c -60 -61 -112 -119 -115 -131 c -4 -11 -20 -39 -36 -63 c -16 -24 -29 -47 -29 -53 c 0 -5 -11 -29 -24 -53 c -47 -84 -84 -194 -94 -279 c -10 -80 -56 -199 -83 -215 c -23 -15 -80 -156 -94 -235 c -27 -158 -22 -147 -84 -180 c -94 -51 -229 -177 -340 -319 c -50 -65 -53 -103 -8 -111 l 28 -5 l -28 -34 c -15 -19 -56 -68 -91 -110 c -70 -84 -128 -170 -187 -276 c -22 -38 -48 -83 -57 -100 c -69 -115 -89 -170 -95 -271 c -7 -116 4 -149 71 -219 c 55 -57 65 -61 226 -95 c 111 -24 165 -30 261 -30 c 117 0 123 1 188 34 c 64 32 222 146 251 180 c 7 9 18 16 26 16 c 25 0 73 75 157 245 c 86 175 157 327 157 339 c 0 4 11 32 25 62 c 14 30 35 81 46 112 c 12 31 31 84 43 117 c 31 82 69 158 116 230 c 22 33 46 74 55 92 c 8 17 19 34 24 37 c 13 8 101 171 101 187 c 0 12 114 244 130 264 c 5 6 25 39 45 75 c 80 140 90 157 117 205 c 15 28 54 102 87 165 c 104 204 105 205 127 202 c 15 -2 29 9 49 40 c 15 24 63 84 105 133 c 83 98 150 190 150 205 c 0 5 13 29 30 53 c 16 25 30 48 30 52 c 0 9 58 80 96 119 c 39 39 114 77 173 88 c 109 20 231 88 308 171 c 39 43 123 199 123 230 c 0 9 14 54 32 99 l 31 83 l 2 250 c 1 213 5 277 28 434 c 24 165 27 211 27 465 c 0 190 -5 301 -13 341 c -14 63 -58 145 -80 145 c -6 0 -20 7 -31 15 c -18 13 -17 16 19 65 c 40 54 74 171 94 320 c 6 41 22 156 36 256 c 23 164 25 213 25 514 c 0 273 -3 345 -16 398 c -14 53 -14 78 -5 157 c 6 51 11 165 11 252 c 0 145 -2 166 -26 233 c -64 183 -187 353 -293 404 c -30 14 -50 33 -64 59 c -20 39 -56 70 -117 103 c -19 10 -58 33 -86 51 c -36 25 -76 39 -145 53 c -111 22 -133 30 -178 64 c -25 19 -47 26 -78 26 c -24 0 -70 11 -103 25 c -33 14 -73 25 -90 25 c -27 0 -70 29 -70 48 c 0 4 -15 24 -34 44 c -44 48 -55 78 -27 78 c 30 0 76 44 100 96 c 55 116 68 332 23 389 c -21 26 -22 37 -22 237 c 0 229 -7 276 -59 390 c -44 96 -176 238 -222 238 c -10 0 -41 22 -67 48 c -60 60 -155 100 -349 148 c -118 29 -154 34 -258 34 c -112 0 -123 -2 -157 -25 z m -932 -3286 c 10 -11 41 -37 68 -57 c 87 -64 98 -78 107 -135 c 5 -28 20 -86 33 -127 c 14 -41 28 -100 32 -130 c 4 -36 22 -85 51 -140 c 54 -103 100 -238 114 -340 c 11 -74 6 -392 -8 -453 c -8 -38 -29 -32 -135 36 c -76 49 -226 127 -243 127 c -21 0 -112 55 -168 102 c -214 179 -283 232 -350 267 c -41 22 -92 50 -113 63 c -22 13 -68 38 -104 56 c -143 68 -173 79 -304 103 c -71 13 -68 18 59 85 c 124 65 124 65 174 102 c 27 20 51 30 62 27 c 27 -9 264 104 364 173 c 50 35 148 110 190 147 c 13 11 39 32 57 47 c 18 14 44 36 58 47 c 31 25 33 25 56 0 z"/>
</g>
</svg>
